# File produced by Open Asset Import Library (http://www.assimp.sf.net)
# (assimp v3.1.187496374)

mtllib wood_box.obj.mtl

# 8 vertex positions
v  -7.32724 7.16783 0
v  -7.32724 107.168 0
v  92.6728 107.168 0
v  92.6728 7.16783 0
v  -7.32724 7.16783 100
v  92.6728 7.16783 100
v  92.6728 107.168 100
v  -7.32724 107.168 100

# 12 UV coordinates
vt 1 0 0
vt 1 1 0
vt -2.98023e-08 1 0
vt 0 0 0
vt 5.96046e-08 5.96046e-08 0
vt 1 5.96046e-08 0
vt 1 1 0
vt 5.96046e-08 1 0
vt 2.98023e-08 2.98023e-08 0
vt 1 2.98023e-08 0
vt 2.98023e-08 1 0
vt 1 8.9407e-08 0

# 6 vertex normals
vn 0 0 -2.54
vn 0 0 2.54
vn 0 -2.54 0
vn 2.54 0 0
vn 0 2.54 0
vn -2.54 0 0

# Mesh 'Box001' with 12 faces
g Box001
usemtl DefaultMaterial
f  1/1/1 2/2/1 3/3/1
f  1/1/1 3/3/1 4/4/1
f  5/5/2 6/6/2 7/7/2
f  5/5/2 7/7/2 8/8/2
f  1/9/3 4/10/3 6/7/3
f  1/9/3 6/7/3 5/11/3
f  4/9/4 3/10/4 7/7/4
f  4/9/4 7/7/4 6/11/4
f  3/9/5 2/12/5 8/7/5
f  3/9/5 8/7/5 7/11/5
f  2/9/6 1/12/6 5/7/6
f  2/9/6 5/7/6 8/11/6

